<?xml version="1.0" encoding="UTF-8"?>
<svg id="Ebene_2" data-name="Ebene 2" xmlns="http://www.w3.org/2000/svg" viewBox="0 0 32.1 42.08">
  <defs>
    <style>
      .cls-1 {
        fill: #010101;
      }
    </style>
  </defs>
  <g id="Layer_1" data-name="Layer 1">
    <g>
      <polygon class="cls-1" points="10.16 21.53 21.48 28.22 10.16 34.93 10.16 21.53"/>
      <rect class="cls-1" x="22.26" y="-.99" width="3.09" height="24.95" transform="translate(9.32 -10.62) rotate(31.01)"/>
      <rect class="cls-1" x="16.87" y="8.11" width="3.09" height="7.99" transform="translate(8.78 -7.71) rotate(30.75)"/>
      <rect class="cls-1" x="25.73" y="7.36" width="3.09" height="13.67" transform="translate(11.08 -11.94) rotate(30.71)"/>
      <path class="cls-1" d="m26.82,23.36l-2.56,2.16c.23.87.36,1.77.36,2.7,0,5.93-4.83,10.76-10.76,10.76s-10.76-4.83-10.76-10.76c0-5.08,3.54-9.33,8.28-10.46l.65-3.26C5.25,15.4,0,21.2,0,28.22c0,7.64,6.22,13.86,13.86,13.86s13.86-6.22,13.86-13.86c0-1.71-.33-3.35-.9-4.86Z"/>
    </g>
  </g>
</svg>